<svg width="342" height="37" viewBox="0 0 342 37" fill="none" xmlns="http://www.w3.org/2000/svg">
<g clip-path="url(#clip0_1_7)">
<path d="M10.4062 35V32.9609L14.2266 32.6562V3.17188H4.64062L4.33594 8.375H2.03906V0.875H29.2031V8.375H26.9297L26.6016 3.17188H17.0391V32.6562L20.8594 32.9609V35H10.4062ZM33.1406 35V32.9609L36.9609 32.6562V3.24219L33.1406 2.9375V0.875H43.5938V2.9375L39.7734 3.24219V32.6562L43.5938 32.9609V35H33.1406ZM47.2969 35V32.9609L51.1172 32.6562V3.24219L47.2969 2.9375V0.875H51.1172H54.9141L67.5234 30.125H67.6641L80.1094 0.875H87.9141V2.9375L84.0938 3.24219V32.6562L87.9141 32.9609V35H77.4609V32.9609L81.375 32.6562V18.1016V4.97656L81.2578 4.95312L68.6016 34.4375H66.6328L53.8359 5.04688L53.6953 5.09375L53.7891 17.7734V32.6562L57.75 32.9609V35H47.2969ZM91.6406 35V32.9609L95.4609 32.6562V3.24219L91.6406 2.9375V0.875H116.156V8.35156H113.766L113.531 3.19531H98.2734V16.1094H112.031V18.4531H98.2734V32.7266H114.258L114.492 27.5234H116.859V35H91.6406Z" fill="#D1D5DB"/>
<path d="M132.258 35L124.336 5.35156L120.844 5V0.875H134.578V5L130.898 5.53906L134.906 22.1328L135.633 25.1797H135.773L136.641 22.1328L143.391 0.875H148.43L155.438 22.7188L156.258 25.4141H156.398L157.102 22.7188L161.25 5.53906L157.359 5V0.875H170.836V5L167.578 5.35156L159.562 35H153.375L146.906 15.0547L146.086 12.2422H145.945L145.031 15.1484L138.492 35H132.258ZM188.555 35.4922C186.258 35.4922 184.164 35.0625 182.273 34.2031C180.383 33.3438 178.75 32.1406 177.375 30.5938C176.016 29.0312 174.969 27.2031 174.234 25.1094C173.5 23 173.133 20.6953 173.133 18.1953V17.6797C173.133 15.1953 173.5 12.9062 174.234 10.8125C174.969 8.70312 176.016 6.86719 177.375 5.30469C178.734 3.74219 180.359 2.53125 182.25 1.67188C184.141 0.8125 186.234 0.382812 188.531 0.382812C190.844 0.382812 192.953 0.8125 194.859 1.67188C196.766 2.53125 198.406 3.74219 199.781 5.30469C201.156 6.86719 202.211 8.70312 202.945 10.8125C203.695 12.9062 204.07 15.1953 204.07 17.6797V18.1953C204.07 20.6953 203.695 23 202.945 25.1094C202.211 27.2031 201.156 29.0312 199.781 30.5938C198.406 32.1406 196.766 33.3438 194.859 34.2031C192.969 35.0625 190.867 35.4922 188.555 35.4922ZM188.555 30.1719C190.492 30.1719 192.102 29.6719 193.383 28.6719C194.664 27.6719 195.625 26.2734 196.266 24.4766C196.922 22.6797 197.25 20.5859 197.25 18.1953V17.6328C197.25 15.2734 196.922 13.2031 196.266 11.4219C195.609 9.625 194.633 8.22656 193.336 7.22656C192.055 6.22656 190.453 5.72656 188.531 5.72656C186.625 5.72656 185.039 6.22656 183.773 7.22656C182.508 8.21094 181.555 9.59375 180.914 11.375C180.289 13.1562 179.977 15.2422 179.977 17.6328V18.1953C179.977 20.5859 180.289 22.6797 180.914 24.4766C181.555 26.2734 182.508 27.6719 183.773 28.6719C185.055 29.6719 186.648 30.1719 188.555 30.1719ZM206.812 35V30.8984L210.445 30.1953V5.70312L206.812 5V0.875H222.984C225.609 0.875 227.859 1.28125 229.734 2.09375C231.609 2.90625 233.047 4.07031 234.047 5.58594C235.062 7.10156 235.57 8.92188 235.57 11.0469C235.57 13.0469 235.07 14.8359 234.07 16.4141C233.07 17.9922 231.68 19.2344 229.898 20.1406C228.117 21.0469 226.062 21.5078 223.734 21.5234H217.289V30.1953L220.945 30.8984V35H206.812ZM228.773 35L223.031 20.2578L229.195 18.7344L234.164 30.2188L237.07 30.8984V35H228.773ZM217.289 16.25H222.867C224.836 16.25 226.305 15.8359 227.273 15.0078C228.258 14.1641 228.75 12.9453 228.75 11.3516C228.75 9.77344 228.266 8.51562 227.297 7.57812C226.328 6.625 224.891 6.14844 222.984 6.14844H217.289V16.25ZM248.859 26.6328L245.32 22.5781L262.031 5.35156L262.078 5.28125L258.703 5V0.875H272.742V5L269.531 5.63281L248.859 26.6328ZM239.812 35V30.8984L243.445 30.1953V5.70312L239.812 5V0.875H253.758V5L250.289 5.70312V30.1953L253.758 30.8984V35H239.812ZM259.453 35V30.8984L262.641 30.6172H262.664L253.992 18.6641L258.516 14.1406L270.609 30.3125L273.961 30.8984V35H259.453ZM276.047 35V30.8984L279.68 30.1953V5.70312L276.047 5V0.875H302.531V10.0859H297.281L296.977 6.14844H286.523V14.7266H298.078V20H286.523V29.75H297.539L297.844 25.6719H303.047V35H276.047ZM306.703 35V30.8984L310.383 30.125V5.79688L306.703 5V0.875H310.383H321.68C324.727 0.875 327.414 1.59375 329.742 3.03125C332.07 4.45312 333.883 6.42969 335.18 8.96094C336.492 11.4766 337.148 14.3672 337.148 17.6328V18.2656C337.148 21.5 336.5 24.3828 335.203 26.9141C333.922 29.4297 332.125 31.4062 329.812 32.8438C327.5 34.2812 324.82 35 321.773 35H306.703ZM317.227 29.7734H321.422C323.312 29.7734 324.914 29.2812 326.227 28.2969C327.539 27.2969 328.539 25.9297 329.227 24.1953C329.93 22.4609 330.281 20.4844 330.281 18.2656V17.6094C330.281 15.3594 329.93 13.375 329.227 11.6562C328.539 9.92188 327.539 8.57031 326.227 7.60156C324.914 6.61719 323.312 6.125 321.422 6.125H317.227V29.7734Z" fill="url(#paint0_linear_1_7)"/>
<path d="M192.505 25.4532L187.246 20.4042C187.147 20.3089 187.069 20.1959 187.016 20.0716C186.963 19.9473 186.937 19.8142 186.937 19.68V11.52H189.062V19.2618L194.014 24.0048L192.505 25.4532Z" fill="#747C89"/>
</g>
<defs>
<linearGradient id="paint0_linear_1_7" x1="171" y1="-15" x2="171" y2="33" gradientUnits="userSpaceOnUse">
<stop stop-color="#9CA3AF"/>
<stop offset="1" stop-color="#4B5563"/>
</linearGradient>
<clipPath id="clip0_1_7">
<rect width="342" height="37" fill="white"/>
</clipPath>
</defs>
</svg>
