<svg width="50" height="50" viewBox="0 0 50 50" fill="none" xmlns="http://www.w3.org/2000/svg">
<g clip-path="url(#clip0_102_10)">
<mask id="mask0_102_10" style="mask-type:luminance" maskUnits="userSpaceOnUse" x="0" y="0" width="50" height="50">
<path d="M50 0H0V50H50V0Z" fill="white"/>
</mask>
<g mask="url(#mask0_102_10)">
<path d="M11.9694 44.0645L12.0189 44.25H12.2109H18.4453H18.6262L18.6827 44.0782L25.2218 24.2266L25.2219 24.2266L25.2229 24.2234L25.9624 21.872L26.6194 24.1247L26.6193 24.1247L26.6216 24.1318L33.0903 44.0771L33.1464 44.25H33.3281H39.5156H39.707L39.7569 44.0652L47.7279 14.5818L50.8159 14.2486L51.0391 14.2245V14V9.875V9.625H50.7891H37.3125H37.0625V9.875V14V14.2177L37.2782 14.2476L40.8953 14.7488L36.8128 31.6557L36.8117 31.6601L36.2682 33.7436L35.6298 31.646L35.6286 31.6424L28.6208 9.79863L28.5651 9.625H28.3828H23.3438H23.1609L23.1055 9.79934L16.3555 31.0571L16.3554 31.0571L16.3533 31.0644L15.6714 33.4604L15.1026 31.0748L15.1024 31.0741L11.1589 14.7467L14.5674 14.2474L14.7812 14.216V14V9.875V9.625H14.5312H0.796875H0.546875V9.875V14V14.2261L0.771831 14.2487L4.09213 14.583L11.9694 44.0645Z" fill="url(#paint0_linear_102_10)" stroke="#A78BFA" stroke-width="0.5"/>
<path d="M20.4062 44V41.9609L24.2266 41.6562V12.1719H14.6406L14.3359 17.375H12.0391V9.875H39.2031V17.375H36.9297L36.6016 12.1719H27.0391V41.6562L30.8594 41.9609V44H20.4062Z" fill="#D1D5DB"/>
</g>
</g>
<defs>
<linearGradient id="paint0_linear_102_10" x1="25.5" y1="-6" x2="25.5" y2="42" gradientUnits="userSpaceOnUse">
<stop stop-color="#7361A7"/>
<stop offset="1" stop-color="#4C1D95"/>
</linearGradient>
<clipPath id="clip0_102_10">
<rect width="50" height="50" fill="white"/>
</clipPath>
</defs>
</svg>
